<svg width="240" height="26" viewBox="0 0 240 26" fill="none" xmlns="http://www.w3.org/2000/svg">
<path d="M10.8262 4.91406H12.1738C12.2936 4.91406 12.3535 4.97396 12.3535 5.09375V20.9062C12.3535 21.026 12.2936 21.0859 12.1738 21.0859H10.8262C10.7064 21.0859 10.6465 21.026 10.6465 20.9062V5.09375C10.6465 4.97396 10.7064 4.91406 10.8262 4.91406Z" fill="#8C8C8C"/>
<path d="M3.95312 12.1465H19.0469C19.1667 12.1465 19.2266 12.2064 19.2266 12.3262V13.6738C19.2266 13.7936 19.1667 13.8535 19.0469 13.8535H3.95312C3.83333 13.8535 3.77344 13.7936 3.77344 13.6738V12.3262C3.77344 12.2064 3.83333 12.1465 3.95312 12.1465Z" fill="#8C8C8C"/>
<path d="M66.0381 13.5088V12.415H67.3711C67.9727 12.415 68.4648 12.251 68.8477 11.9229C69.2305 11.5902 69.4219 11.1663 69.4219 10.6514C69.4219 10.141 69.2464 9.73763 68.8955 9.44141C68.5446 9.14518 68.0661 8.99707 67.46 8.99707C66.8493 8.99707 66.3548 9.14518 65.9766 9.44141C65.6029 9.73763 65.391 10.1455 65.3408 10.665H64.1445C64.2083 9.80827 64.5387 9.13379 65.1357 8.6416C65.7373 8.14941 66.528 7.90332 67.5078 7.90332C68.4284 7.90332 69.1849 8.15169 69.7773 8.64844C70.3743 9.14062 70.6729 9.77181 70.6729 10.542C70.6729 11.0889 70.502 11.5742 70.1602 11.998C69.8229 12.4219 69.3831 12.6999 68.8408 12.832V12.8867C69.4971 12.9733 70.0143 13.2376 70.3926 13.6797C70.7708 14.1172 70.96 14.6709 70.96 15.3408C70.96 16.152 70.625 16.8379 69.9551 17.3984C69.2852 17.9544 68.4626 18.2324 67.4873 18.2324C66.4482 18.2324 65.5983 17.9772 64.9375 17.4668C64.2767 16.9518 63.9235 16.2728 63.8779 15.4297H65.0674C65.1221 15.9492 65.3659 16.3639 65.7988 16.6738C66.2363 16.9837 66.7946 17.1387 67.4736 17.1387C68.1344 17.1387 68.6699 16.9701 69.0801 16.6328C69.4902 16.291 69.6953 15.849 69.6953 15.3066C69.6953 14.7415 69.4948 14.3018 69.0938 13.9873C68.6927 13.6683 68.1367 13.5088 67.4258 13.5088H66.0381ZM74.6582 17.1113C75.2188 17.1113 75.6882 16.9382 76.0664 16.5918C76.4492 16.2409 76.6406 15.8102 76.6406 15.2998V14.7188L74.7402 14.835C74.2617 14.8669 73.8903 14.9831 73.626 15.1836C73.3662 15.3841 73.2363 15.653 73.2363 15.9902C73.2363 16.3275 73.3662 16.5986 73.626 16.8037C73.8857 17.0088 74.2298 17.1113 74.6582 17.1113ZM74.3916 18.123C73.6852 18.123 73.1133 17.9271 72.6758 17.5352C72.2428 17.1432 72.0264 16.6283 72.0264 15.9902C72.0264 15.3796 72.2497 14.8919 72.6963 14.5273C73.1475 14.1628 73.7832 13.9577 74.6035 13.9121L76.6406 13.7959V13.2012C76.6406 12.7682 76.5039 12.4287 76.2305 12.1826C75.957 11.9365 75.5742 11.8135 75.082 11.8135C74.6309 11.8135 74.264 11.9137 73.9814 12.1143C73.6989 12.3102 73.5189 12.5859 73.4414 12.9414H72.293C72.334 12.3079 72.6074 11.7884 73.1133 11.3828C73.6237 10.9727 74.2891 10.7676 75.1094 10.7676C75.9434 10.7676 76.6042 10.9772 77.0918 11.3965C77.584 11.8158 77.8301 12.3786 77.8301 13.085V18H76.7021V16.7764H76.6748C76.4606 17.182 76.1462 17.5078 75.7314 17.7539C75.3167 18 74.8701 18.123 74.3916 18.123ZM84.0439 11.8682H80.6465V18H79.4707V10.8906H84.0439V11.8682ZM88.7949 10.7676C89.7064 10.7676 90.4401 11.1025 90.9961 11.7725C91.5566 12.4424 91.8369 13.3333 91.8369 14.4453C91.8369 15.5527 91.5589 16.4437 91.0029 17.1182C90.4469 17.7881 89.7201 18.123 88.8223 18.123C88.321 18.123 87.8721 18.0091 87.4756 17.7812C87.0791 17.5534 86.7738 17.2412 86.5596 16.8447H86.5322V20.3721H85.3428V10.8906H86.4707V12.0938H86.498C86.7214 11.6836 87.0335 11.36 87.4346 11.123C87.8356 10.8861 88.2891 10.7676 88.7949 10.7676ZM88.5625 17.0771C89.196 17.0771 89.6973 16.8402 90.0664 16.3662C90.4355 15.8923 90.6201 15.252 90.6201 14.4453C90.6201 13.6387 90.4355 12.9984 90.0664 12.5244C89.6973 12.0505 89.196 11.8135 88.5625 11.8135C87.9518 11.8135 87.4596 12.055 87.0859 12.5381C86.7122 13.0212 86.5254 13.6569 86.5254 14.4453C86.5254 15.2383 86.7122 15.8763 87.0859 16.3594C87.4596 16.8379 87.9518 17.0771 88.5625 17.0771ZM93.5459 20.6592C93.3317 20.6592 93.1608 20.6455 93.0332 20.6182V19.6201C93.1426 19.6429 93.2975 19.6543 93.498 19.6543C93.8307 19.6543 94.0973 19.5654 94.2979 19.3877C94.4984 19.2145 94.667 18.9206 94.8037 18.5059L94.9678 18.0068L92.3428 10.8906H93.6143L95.583 16.8105H95.6035L97.5723 10.8906H98.8232L96.0273 18.499C95.722 19.3285 95.3916 19.8958 95.0361 20.2012C94.6852 20.5065 94.1885 20.6592 93.5459 20.6592ZM102.255 18.123C101.471 18.123 100.822 17.9453 100.307 17.5898C99.7917 17.2298 99.5046 16.7513 99.4453 16.1543H100.648C100.717 16.4642 100.89 16.7057 101.168 16.8789C101.451 17.0521 101.813 17.1387 102.255 17.1387C102.761 17.1387 103.155 17.0316 103.438 16.8174C103.72 16.5986 103.861 16.3115 103.861 15.9561C103.861 15.5596 103.729 15.2679 103.465 15.0811C103.201 14.8896 102.797 14.7939 102.255 14.7939H101.188V13.8232H102.255C103.166 13.8232 103.622 13.4769 103.622 12.7842C103.622 12.4743 103.508 12.2259 103.28 12.0391C103.057 11.8522 102.724 11.7588 102.282 11.7588C101.863 11.7588 101.517 11.8431 101.243 12.0117C100.97 12.1803 100.808 12.4059 100.758 12.6885H99.6025C99.68 12.1006 99.958 11.6335 100.437 11.2871C100.915 10.9408 101.53 10.7676 102.282 10.7676C103.075 10.7676 103.69 10.943 104.128 11.2939C104.565 11.6403 104.784 12.1051 104.784 12.6885C104.784 13.0531 104.675 13.3789 104.456 13.666C104.242 13.9531 103.959 14.1377 103.608 14.2197V14.2744C104.069 14.3747 104.42 14.5684 104.661 14.8555C104.907 15.138 105.03 15.4867 105.03 15.9014C105.03 16.5667 104.775 17.1045 104.265 17.5146C103.759 17.9202 103.089 18.123 102.255 18.123ZM107.566 18H106.391V10.8906H107.566V16.1816H107.621L111.176 10.8906H112.352V18H111.176V12.709H111.121L107.566 18ZM119.222 10.8906V11.8682H116.925V18H115.749V11.8682H113.452V10.8906H119.222ZM122.824 14.1377H121.498V17.0225H122.824C123.285 17.0225 123.651 16.8903 123.925 16.626C124.203 16.3617 124.342 16.013 124.342 15.5801C124.342 15.1426 124.203 14.7939 123.925 14.5342C123.651 14.2699 123.285 14.1377 122.824 14.1377ZM120.322 18V10.8906H121.498V13.1602H122.845C123.66 13.1602 124.31 13.3789 124.793 13.8164C125.276 14.2539 125.518 14.8418 125.518 15.5801C125.518 16.3184 125.276 16.9062 124.793 17.3438C124.31 17.7812 123.66 18 122.845 18H120.322ZM133.146 10.7676C134.058 10.7676 134.792 11.1025 135.348 11.7725C135.908 12.4424 136.188 13.3333 136.188 14.4453C136.188 15.5527 135.91 16.4437 135.354 17.1182C134.799 17.7881 134.072 18.123 133.174 18.123C132.673 18.123 132.224 18.0091 131.827 17.7812C131.431 17.5534 131.125 17.2412 130.911 16.8447H130.884V20.3721H129.694V10.8906H130.822V12.0938H130.85C131.073 11.6836 131.385 11.36 131.786 11.123C132.187 10.8861 132.641 10.7676 133.146 10.7676ZM132.914 17.0771C133.548 17.0771 134.049 16.8402 134.418 16.3662C134.787 15.8923 134.972 15.252 134.972 14.4453C134.972 13.6387 134.787 12.9984 134.418 12.5244C134.049 12.0505 133.548 11.8135 132.914 11.8135C132.303 11.8135 131.811 12.055 131.438 12.5381C131.064 13.0212 130.877 13.6569 130.877 14.4453C130.877 15.2383 131.064 15.8763 131.438 16.3594C131.811 16.8379 132.303 17.0771 132.914 17.0771ZM140.365 11.7998C139.814 11.7998 139.356 11.9912 138.991 12.374C138.631 12.7523 138.433 13.2399 138.396 13.8369H142.259C142.245 13.2354 142.065 12.7454 141.719 12.3672C141.372 11.9889 140.921 11.7998 140.365 11.7998ZM142.231 15.9629H143.4C143.296 16.5918 142.967 17.109 142.416 17.5146C141.869 17.9202 141.211 18.123 140.44 18.123C139.424 18.123 138.624 17.7949 138.041 17.1387C137.458 16.4824 137.166 15.5938 137.166 14.4727C137.166 13.3607 137.458 12.4652 138.041 11.7861C138.629 11.1071 139.41 10.7676 140.386 10.7676C141.343 10.7676 142.099 11.0889 142.655 11.7314C143.211 12.374 143.489 13.2354 143.489 14.3154V14.7666H138.39V14.835C138.39 15.5186 138.576 16.0654 138.95 16.4756C139.324 16.8857 139.83 17.0908 140.468 17.0908C140.914 17.0908 141.295 16.9883 141.609 16.7832C141.924 16.5781 142.131 16.3047 142.231 15.9629ZM147.181 18.123C146.397 18.123 145.747 17.9453 145.232 17.5898C144.717 17.2298 144.43 16.7513 144.371 16.1543H145.574C145.643 16.4642 145.816 16.7057 146.094 16.8789C146.376 17.0521 146.739 17.1387 147.181 17.1387C147.687 17.1387 148.081 17.0316 148.363 16.8174C148.646 16.5986 148.787 16.3115 148.787 15.9561C148.787 15.5596 148.655 15.2679 148.391 15.0811C148.126 14.8896 147.723 14.7939 147.181 14.7939H146.114V13.8232H147.181C148.092 13.8232 148.548 13.4769 148.548 12.7842C148.548 12.4743 148.434 12.2259 148.206 12.0391C147.983 11.8522 147.65 11.7588 147.208 11.7588C146.789 11.7588 146.442 11.8431 146.169 12.0117C145.896 12.1803 145.734 12.4059 145.684 12.6885H144.528C144.606 12.1006 144.884 11.6335 145.362 11.2871C145.841 10.9408 146.456 10.7676 147.208 10.7676C148.001 10.7676 148.616 10.943 149.054 11.2939C149.491 11.6403 149.71 12.1051 149.71 12.6885C149.71 13.0531 149.601 13.3789 149.382 13.666C149.168 13.9531 148.885 14.1377 148.534 14.2197V14.2744C148.994 14.3747 149.345 14.5684 149.587 14.8555C149.833 15.138 149.956 15.4867 149.956 15.9014C149.956 16.5667 149.701 17.1045 149.19 17.5146C148.685 17.9202 148.015 18.123 147.181 18.123ZM156.99 18.123C156.047 18.123 155.29 17.8291 154.721 17.2412C154.151 16.6533 153.834 15.8398 153.771 14.8008H152.492V18H151.316V10.8906H152.492V13.8232H153.798C153.903 12.8662 154.235 12.1188 154.796 11.5811C155.356 11.0387 156.088 10.7676 156.99 10.7676C157.988 10.7676 158.774 11.0957 159.349 11.752C159.927 12.4036 160.217 13.3014 160.217 14.4453C160.217 15.5846 159.927 16.4824 159.349 17.1387C158.774 17.7949 157.988 18.123 156.99 18.123ZM155.5 16.3867C155.851 16.8424 156.348 17.0703 156.99 17.0703C157.633 17.0703 158.127 16.8424 158.474 16.3867C158.825 15.9264 159 15.2793 159 14.4453C159 13.6068 158.825 12.9596 158.474 12.5039C158.127 12.0482 157.633 11.8203 156.99 11.8203C156.348 11.8203 155.851 12.0482 155.5 12.5039C155.154 12.9596 154.98 13.6068 154.98 14.4453C154.98 15.2793 155.154 15.9264 155.5 16.3867ZM162.719 18H161.543V10.8906H162.985L165.515 16.4277H165.569L168.112 10.8906H169.5V18H168.317V12.9551H168.27L165.973 17.7949H165.063L162.767 12.9551H162.719V18ZM174.025 11.7998C173.474 11.7998 173.016 11.9912 172.651 12.374C172.291 12.7523 172.093 13.2399 172.057 13.8369H175.919C175.905 13.2354 175.725 12.7454 175.379 12.3672C175.033 11.9889 174.581 11.7998 174.025 11.7998ZM175.892 15.9629H177.061C176.956 16.5918 176.628 17.109 176.076 17.5146C175.529 17.9202 174.871 18.123 174.101 18.123C173.084 18.123 172.285 17.7949 171.701 17.1387C171.118 16.4824 170.826 15.5938 170.826 14.4727C170.826 13.3607 171.118 12.4652 171.701 11.7861C172.289 11.1071 173.071 10.7676 174.046 10.7676C175.003 10.7676 175.759 11.0889 176.315 11.7314C176.871 12.374 177.149 13.2354 177.149 14.3154V14.7666H172.05V14.835C172.05 15.5186 172.237 16.0654 172.61 16.4756C172.984 16.8857 173.49 17.0908 174.128 17.0908C174.575 17.0908 174.955 16.9883 175.27 16.7832C175.584 16.5781 175.791 16.3047 175.892 15.9629Z" fill="#595959"/>
</svg>
